<?xml version="1.0" standalone="no"?><!DOCTYPE svg PUBLIC "-//W3C//DTD SVG 1.1//EN" "http://www.w3.org/Graphics/SVG/1.1/DTD/svg11.dtd"><svg t="1646051348095" class="icon" viewBox="0 0 1024 1024" version="1.1" xmlns="http://www.w3.org/2000/svg" p-id="1553" width="32" height="32" xmlns:xlink="http://www.w3.org/1999/xlink"><defs><style type="text/css"></style></defs><path d="M0 0h1024v1024H0V0z" fill="#FFFFFF" p-id="1554"></path><path d="M803.099131 346.050758c9.711096-54.393824-26.551454-97.137521-68.657661-128.220465-58.925315-43.386499-125.617382-69.289838-194.264417-89.365457v717.526739c30.43483-26.546141 60.874971-56.338168 90.008259-86.778311 62.171201-68.641723 119.810911-138.579676 143.764594-222.770839 9.711096-38.201581 4.536803-81.593393-27.847684-107.496732 27.852995-22.019963 53.102907-49.219531 56.996909-82.894935z m-118.514682 248.026065c-21.371848 38.855008-50.510448 74.474756-84.844591 107.496731l-0.642803-205.28768c23.316192-16.835045 47.269875-31.731059 76.4191-34.323517 11.660752 0 22.019963 3.883376 29.786715 12.951669 25.913964 40.799353-4.531491 83.543049-20.718421 119.162797z m58.935939-264.218308c-5.833032 32.379174-41.45278 51.158563-66.708003 64.758348-25.255224 12.951669-51.163876 23.31088-77.71533 33.021976V217.824981c40.809977 12.303555 77.715329 33.027288 112.68165 57.63971 16.197555 13.599784 38.217519 30.43483 31.741683 54.393824z m-256.446242 510.948142V125.867065l-57.634398 29.792027v383.375791c-2.587146 11.002013 5.179605 27.842371-7.12395 33.021976-3.240574 0.648115-5.82772-0.642802-7.123949-3.229948-24.60711-92.611343-34.971633-190.391666-39.503123-290.769761l-1.944345-87.426425-55.041939 40.799352v23.31088c3.235261 92.611343 9.716408 183.267717 27.199569 270.046028l-22.014651 24.612422c-8.420179-11.65544-13.599784-23.964307-19.432816-36.267862-27.842371-73.821329-38.206894-154.771919-42.09027-238.309656l-47.923302 35.619747c4.536803 126.929548 28.495798 246.729835 105.5577 341.923012 14.896014-16.835045 29.792027-34.323518 44.688041-50.510449 7.772064 34.323518 18.779389 67.350806 31.731059 99.724668 21.361224 49.862334 45.325531 100.372782 90.656374 139.22779z" p-id="1555"></path><path d="M928.07371 219.769325l-86.130196-21.366536-15.544128-58.282513-88.069228-20.723733-18.125962-63.462118L512.32937 8.659238l-203.991451 47.269874-18.131274 63.462118-88.07454 20.723734c-5.82772 20.070307-11.007325 39.503123-16.192243 58.930627l-86.130196 20.718422c-6.475835 183.267717 44.039926 344.51547 135.349727 488.280063 66.702691 102.965241 167.080786 211.763514 277.169977 265.509225 74.464131-35.619747 140.529332-95.198489 200.102762-161.901181 144.412708-167.064849 223.413642-362.63612 215.641578-591.882795z m-253.853784 554.339953c-47.269875 53.102907-100.378095 105.552387-159.951524 135.992529-56.986283-28.495798-106.848617-77.710017-152.179461-127.577662-117.861255-137.936874-196.219386-292.060678-209.171055-472.735936-1.296229-14.896014-1.939032-29.1386-1.29623-44.682728l73.178527-16.835046 16.835045-60.226857 90.018884-21.366536 0.648115-1.944344 16.18693-62.171201 163.192098-38.206893 168.371703 38.206893 16.186931 63.462118 91.315113 22.019963 15.544129 60.226857 73.821328 16.835046c-1.949657 196.862188-80.307788 361.99863-202.700533 509.003797z m27.20488 192.330698c9.711096-0.648115 16.186931-5.82772 16.186931-16.840358 0-12.298242-7.772064-18.131275-22.67339-18.131275h-23.305568v62.165889h10.353898v-26.546141h9.711096l16.197556 26.546141h11.007325l-17.477848-27.194256z m-19.432816-7.772064v-18.77939h12.303555c5.833032 0 12.951669 1.290917 12.951669 9.062981 0 8.420179-6.475835 9.716408-14.247899 9.716409h-11.007325z" p-id="1556"></path><path d="M693.642117 911.398037c-29.133288 0-53.092282 23.958995-53.092282 53.097595s23.958995 53.102907 53.092282 53.102907c29.143913 0 53.113532-23.964307 53.113533-53.102907s-23.964307-53.097595-53.113533-53.097595z m0 101.020897a47.811741 47.811741 0 0 1-47.917989-47.923302 47.811741 47.811741 0 0 1 47.917989-47.923302c26.562078 0 47.923302 21.366536 47.923302 47.923302a47.801116 47.801116 0 0 1-47.923302 47.923302z" p-id="1557"></path></svg>